<svg xmlns="http://www.w3.org/2000/svg" xmlns:xlink="http://www.w3.org/1999/xlink" version="1.1" id="Layer_1" x="0px" y="0px" width="380px" height="52px" viewBox="0 0 380 52" enable-background="new 0 0 380 52" xml:space="preserve">
<g>
	<g>
		<path fill="#0066AE" d="M0 0v50.799h50.806V0H0z M40.914 35.744c-0.612 1.074-1.589 1.77-2.669 2.4 c-1.17 0.649-2.417 1.207-3.697 1.627c-1.237 0.397-2.515 0.709-3.812 0.871c-1.289 0.157-2.572 0.049-3.841-0.197 c-1.375-0.269-2.698-0.64-4.074-0.891c-1.285-0.236-2.57-0.412-3.863-0.499c-1.398-0.112-2.811-0.1-4.193-0.266 c-1.194-0.152-2.539-0.302-3.427-1.224c-0.568-0.59-0.804-1.463-0.799-2.271c-0.005-1.139 0.58-2.17 1.584-2.717 c1.108-0.604 2.482-0.588 3.695-0.51c2.696 0.2 5.4 0.8 8.1 0.392c1.295-0.198 2.49-0.878 3.612-1.515 c1.145-0.656 2.238-1.187 3.537-1.418c1.307-0.232 2.583-0.197 3.891-0.086c1.324 0.1 2.7 0.3 3.9 0.8 c1.134 0.4 2 1 2.3 2.179C41.531 33.4 41.5 34.7 40.9 35.744z M41.461 24.4 c-0.092 0.246-0.2 0.277-0.585 0.379c-0.45 0.133-0.892 0.229-1.3 0.307c-1.986 0.4-3.565 0.568-6.469 0.7 c-3.49 0.146-6.01-0.058-7.918-0.305c-1.91-0.239-3.886-0.412-7.381-0.489c-3.492-0.074-5.986-0.031-6.685-0.074 c-0.659-0.039-0.862-0.105-1.175-0.965c-0.303-0.822-0.532-2.18-0.014-4.599c0.258-1.194 0.573-1.911 0.859-3.05 c0.171-0.666 0.333-1.494 0.436-2.594c0.093-0.979 0.132-2.041 0.152-2.392c0.016-0.356 0.016-0.45 0.592-0.596 c0.585-0.145 2.625-0.354 4.464-0.354c1.404-0.005 3 0 4.2 0.424c0.862 0.3 1 0.6 1.2 0.8 c0.765 1 2.5 2.8 4.1 4.219c1.61 1.4 3.8 3.1 5.8 4.134c2.022 1 3.1 1.2 3.6 1.2 c0.76 0.1 2.4 0 3.5 0.062c0.294 0 0.5 0 0.7 0.075c0.758 0.1 1.1 0.3 1.5 0.9 c0.272 0.4 0.4 1 0.4 1.233C41.557 23.9 41.5 24.3 41.5 24.439z"/>
	</g>
</g>
<g>
	<g>
		<path fill="#1D1D1B" d="M60.454 0l8.861 0.003v42.918h25.713l-0.003 7.656H60.454V0z"/>
		<path fill="#1D1D1B" d="M134.194 42.428c0 1 0.1 1.7 0.4 2.129c0.262 0.4 0.8 0.6 1.5 0.6 c0.245 0 0.5 0 0.9 0c0.325-0.004 0.71-0.047 1.133-0.137v5.594c-0.282 0.095-0.648 0.207-1.095 0.3 c-0.445 0.121-0.912 0.229-1.377 0.322c-0.483 0.097-0.955 0.166-1.422 0.217c-0.479 0.044-0.875 0.066-1.207 0.1 c-1.654-0.004-3.023-0.338-4.109-0.991c-1.088-0.661-1.792-1.822-2.124-3.476c-1.598 1.556-3.576 2.694-5.91 3.4 c-2.335 0.709-4.599 1.06-6.767 1.06c-1.656 0-3.232-0.222-4.753-0.674c-1.502-0.449-2.842-1.104-3.997-1.986 c-1.158-0.868-2.085-1.979-2.759-3.326c-0.688-1.348-1.021-2.912-1.028-4.711c0-2.266 0.407-4.104 1.244-5.52 c0.819-1.421 1.902-2.531 3.254-3.33c1.346-0.806 2.857-1.386 4.536-1.73c1.671-0.361 3.358-0.639 5.066-0.814 c1.459-0.295 2.851-0.488 4.178-0.604c1.314-0.118 2.488-0.324 3.502-0.604c1.02-0.277 1.813-0.72 2.409-1.312 c0.587-0.591 0.885-1.479 0.885-2.662c0-1.031-0.247-1.879-0.743-2.547c-0.5-0.662-1.107-1.168-1.846-1.525 c-0.725-0.35-1.54-0.577-2.445-0.7c-0.895-0.12-1.747-0.181-2.544-0.18c-2.274-0.001-4.136 0.474-5.595 1.4 c-1.472 0.944-2.291 2.41-2.49 4.394h-8.07c0.14-2.366 0.708-4.319 1.708-5.879c0.994-1.562 2.255-2.806 3.788-3.759 c1.535-0.941 3.264-1.6 5.206-1.978c1.934-0.381 3.911-0.563 5.946-0.571c1.8 0 3.6 0.2 5.3 0.6 c1.75 0.4 3.3 1 4.7 1.836c1.391 0.9 2.5 2 3.4 3.299c0.859 1.3 1.3 3 1.3 4.927L134.194 42.4 L134.194 42.428z M126.12 32.227c-1.23 0.806-2.746 1.285-4.539 1.457c-1.79 0.162-3.586 0.406-5.376 0.7 c-0.859 0.143-1.676 0.346-2.486 0.604c-0.799 0.262-1.504 0.619-2.12 1.063c-0.618 0.446-1.1 1.038-1.448 1.8 c-0.359 0.728-0.539 1.617-0.539 2.656c0 0.9 0.3 1.7 0.8 2.264c0.517 0.6 1.1 1.1 1.9 1.4 c0.73 0.4 1.5 0.6 2.4 0.746c0.874 0.1 1.7 0.2 2.4 0.219c0.895 0 1.856-0.122 2.896-0.357 c1.044-0.236 2.021-0.635 2.945-1.202c0.914-0.569 1.69-1.282 2.298-2.163c0.618-0.873 0.925-1.943 0.925-3.226v-6.021H126.12z"/>
		<path fill="#1D1D1B" d="M149.954 38.816c0.233 2.4 1.1 4 2.7 4.963c1.555 0.9 3.4 1.4 5.6 1.4 c0.746 0 1.61-0.064 2.58-0.178c0.966-0.117 1.884-0.343 2.729-0.673c0.847-0.332 1.542-0.813 2.093-1.454 c0.537-0.638 0.785-1.475 0.744-2.521c-0.053-1.033-0.426-1.877-1.138-2.543c-0.705-0.659-1.619-1.189-2.724-1.598 c-1.109-0.396-2.377-0.744-3.793-1.035c-1.417-0.271-2.855-0.574-4.323-0.902c-1.507-0.332-2.962-0.738-4.353-1.207 c-1.394-0.473-2.64-1.109-3.755-1.918c-1.114-0.803-1.99-1.83-2.654-3.082c-0.662-1.248-0.992-2.795-0.992-4.635 c0-1.985 0.482-3.646 1.449-4.999c0.974-1.336 2.197-2.426 3.69-3.254c1.489-0.83 3.138-1.401 4.952-1.737 c1.815-0.33 3.555-0.5 5.209-0.491c1.887-0.007 3.7 0.2 5.4 0.601c1.716 0.4 3.3 1.1 4.7 1.9 c1.389 0.9 2.6 2.1 3.5 3.514c0.926 1.4 1.5 3.2 1.7 5.205h-8.434c-0.378-1.941-1.27-3.232-2.653-3.897 c-1.4-0.666-2.989-0.994-4.786-0.994c-0.57 0.001-1.237 0.049-2.021 0.137c-0.773 0.098-1.511 0.282-2.197 0.5 c-0.676 0.262-1.263 0.64-1.731 1.133c-0.473 0.496-0.714 1.143-0.714 1.946c0.005 1 0.3 1.8 1 2.4 c0.683 0.6 1.6 1.1 2.7 1.521c1.114 0.4 2.4 0.7 3.8 1.031c1.412 0.3 2.9 0.6 4.4 0.9 c1.471 0.3 2.9 0.7 4.3 1.197c1.427 0.5 2.7 1.1 3.8 1.906c1.119 0.8 2 1.8 2.7 3.1 c0.681 1.2 1 2.7 1 4.532c0 2.171-0.493 4.022-1.485 5.53c-0.992 1.507-2.289 2.74-3.875 3.7 c-1.58 0.939-3.342 1.629-5.284 2.055c-1.942 0.42-3.861 0.633-5.752 0.633c-2.322 0.004-4.459-0.26-6.426-0.774 c-1.959-0.524-3.665-1.317-5.107-2.377c-1.44-1.062-2.577-2.383-3.41-3.962c-0.827-1.581-1.265-3.462-1.312-5.635H149.954 L149.954 38.816z"/>
		<path fill="#1D1D1B" d="M177.648 13.958h6.093l0.005-10.984h8.066v10.984h7.293l0.004 6.024h-7.297v19.545 c0 0.8 0 1.6 0.1 2.19c0.065 0.6 0.2 1.1 0.5 1.564c0.258 0.4 0.7 0.7 1.2 0.9 c0.515 0.2 1.2 0.3 2.1 0.324c0.566-0.004 1.128-0.02 1.696-0.043c0.571-0.016 1.129-0.102 1.692-0.244v6.236 c-0.895 0.09-1.766 0.184-2.621 0.281c-0.847 0.096-1.717 0.139-2.608 0.145c-2.132-0.006-3.844-0.203-5.14-0.609 c-1.293-0.397-2.316-0.986-3.045-1.762c-0.737-0.778-1.229-1.764-1.494-2.949c-0.248-1.174-0.405-2.516-0.455-4.031V19.975 l-6.093 0.007L177.648 13.958L177.648 13.958z"/>
	</g>
	<path fill="#1D1D1B" d="M209.311 0l22.448 0.007c9.071 0 15 5.3 15 14.442c0 9.143-5.963 14.453-15.027 14.5 l-17.631 0.005v21.672h-4.812L209.311 0z M214.128 24.799h16.567c6.662 0 11.27-3.407 11.27-10.35 c0-6.945-4.605-10.336-11.27-10.336h-16.567V24.799L214.128 24.799z"/>
	<path fill="#1D1D1B" d="M273.877 25.221c0.423-8.575 6.445-12.253 14.797-12.253c6.444 0 13.5 2 13.5 11.763l-0.002 19.4 c0 1.7 0.9 2.7 2.6 2.684c0.499 0 1.062-0.135 1.415-0.274v3.752c-0.99 0.216-1.691 0.287-2.895 0.3 c-4.543 0-5.243-2.554-5.243-6.381h-0.147c-3.113 4.745-6.303 7.44-13.314 7.44c-6.725 0-12.254-3.33-12.254-10.691 c0-10.278 9.996-10.629 19.627-11.762c3.678-0.428 5.729-0.924 5.729-4.96c0-6.017-4.314-7.505-9.554-7.504 c-5.531 0-9.636 2.549-9.779 8.5H273.877z M297.671 30.598l-0.132 0.006c-0.576 1.064-2.549 1.42-3.76 1.6 c-7.582 1.341-16.995 1.271-16.995 8.421c0 4.5 4 7.2 8.1 7.23c6.801 0 12.813-4.323 12.75-11.479L297.671 30.598z"/>
	<path fill="#1D1D1B" d="M337.555 25.504c-1.205-5.455-4.537-8.783-10.344-8.783c-8.568-0.007-12.822 7.787-12.822 15.6 c0.006 7.8 4.3 15.6 12.8 15.585c5.523 0 10.057-4.319 10.63-10.416h4.46c-1.203 8.784-6.943 14.169-15.09 14.2 c-11.186 0-17.281-8.856-17.281-19.338c0-10.482 6.094-19.333 17.281-19.333c7.798 0 13.8 4.2 14.8 12.535L337.555 25.504z"/>
	<path fill="#1D1D1B" d="M351.867 33.506c0.072 6.5 3.5 14.4 12 14.381c6.52-0.001 10.055-3.83 11.477-9.348h4.46 c-1.909 8.281-6.726 13.1-15.937 13.1c-11.611 0-16.504-8.932-16.504-19.338c0-9.631 4.893-19.333 16.504-19.333 c11.764 0 16.4 10.3 16.1 20.535L351.867 33.506z M375.525 29.748c-0.217-6.725-4.396-13.027-11.623-13.027 c-7.293-0.001-11.332 6.375-12.035 13.032L375.525 29.748z"/>
	<path fill="#1D1D1B" d="M259.023 42.428c0.008 2.9 0.4 4.6 3.6 4.818c1.273 0 2.551-0.07 3.822-0.215v3.824 c-1.343 0.004-2.613 0.146-3.957 0.146c-5.952-0.003-8.009-1.982-7.939-8.222l0.006-42.774L259.023 0V42.428z"/>
</g>
</svg>
