<?xml version="1.0" encoding="utf-8"?>
<!-- Generator: Adobe Illustrator 15.1.0, SVG Export Plug-In . SVG Version: 6.00 Build 0)  -->
<!DOCTYPE svg PUBLIC "-//W3C//DTD SVG 1.1//EN" "http://www.w3.org/Graphics/SVG/1.1/DTD/svg11.dtd">
<svg version="1.1" id="Layer_1" xmlns="http://www.w3.org/2000/svg" xmlns:xlink="http://www.w3.org/1999/xlink" x="0px" y="0px"
	 width="163.164px" height="85.259px" viewBox="0 0 163.164 85.259" enable-background="new 0 0 163.164 85.259"
	 xml:space="preserve">
<g>
	<circle fill="#FFFFFF" cx="84.52" cy="66.838" r="3.876"/>
	<circle fill="#0066AF" cx="84.52" cy="66.838" r="2.651"/>
	<path fill="#FFFFFF" d="M78.742,51.775c-7.118-2.445-12.001-9.21-12.001-16.813c0-9.65,7.742-17.539,17.342-17.775l0.021-0.01
		l0.816-0.002l0.033,0.012c9.601,0.233,17.346,8.124,17.346,17.775c0,7.604-4.883,14.368-11.999,16.813l-5.779,16.567L78.742,51.775
		z"/>
	<linearGradient id="SVGID_1_" gradientUnits="userSpaceOnUse" x1="84.52" y1="19.9009" x2="84.52" y2="60.5518">
		<stop  offset="0" style="stop-color:#72A6D9"/>
		<stop  offset="1" style="stop-color:#0066AF"/>
	</linearGradient>
	<path fill="url(#SVGID_1_)" d="M100.279,34.961c0-8.693-7.04-15.743-15.729-15.758c-0.01-0.002-0.021-0.009-0.029-0.009
		c-0.011,0-0.021,0.007-0.03,0.009c-8.688,0.015-15.729,7.064-15.729,15.758c0,7.245,4.892,13.345,11.552,15.187l4.208,12.06
		l4.206-12.06C95.387,48.306,100.279,42.207,100.279,34.961z"/>
	<g>
		<path fill="#0066AF" d="M92.414,38.826c-0.297,0.516-0.771,0.854-1.292,1.138c-0.566,0.312-1.17,0.583-1.789,0.786
			c-0.597,0.193-1.216,0.344-1.843,0.421c-0.625,0.077-1.245,0.024-1.857-0.093c-0.665-0.131-1.306-0.311-1.97-0.433
			c-0.622-0.114-1.243-0.199-1.869-0.24c-0.677-0.057-1.36-0.05-2.028-0.132c-0.578-0.07-1.229-0.143-1.658-0.59
			c-0.275-0.284-0.39-0.708-0.387-1.098c-0.003-0.552,0.28-1.05,0.768-1.313c0.535-0.292,1.199-0.287,1.786-0.248
			c1.306,0.092,2.623,0.383,3.934,0.191c0.627-0.097,1.204-0.425,1.748-0.735c0.553-0.318,1.082-0.573,1.71-0.685
			c0.632-0.111,1.25-0.095,1.882-0.043c0.64,0.056,1.285,0.172,1.896,0.371c0.55,0.186,0.972,0.469,1.13,1.054
			C92.71,37.705,92.682,38.336,92.414,38.826z"/>
		<path fill="#0066AF" d="M92.678,33.356c-0.046,0.119-0.098,0.134-0.284,0.182c-0.219,0.063-0.433,0.111-0.63,0.148
			c-0.959,0.195-1.723,0.276-3.128,0.341c-1.688,0.068-2.906-0.029-3.831-0.149c-0.922-0.117-1.877-0.198-3.569-0.236
			c-1.688-0.037-2.896-0.016-3.232-0.037c-0.318-0.016-0.418-0.05-0.568-0.467c-0.146-0.396-0.258-1.053-0.007-2.222
			c0.125-0.579,0.277-0.925,0.416-1.477c0.082-0.323,0.16-0.722,0.21-1.254c0.045-0.475,0.064-0.988,0.074-1.157
			c0.008-0.173,0.008-0.218,0.286-0.286c0.283-0.073,1.27-0.173,2.159-0.173c0.679-0.003,1.447,0.012,2.025,0.205
			c0.417,0.145,0.502,0.286,0.598,0.408c0.369,0.469,1.216,1.338,1.993,2.04c0.777,0.697,1.83,1.499,2.812,1.998
			c0.979,0.494,1.509,0.569,1.754,0.608c0.368,0.049,1.157,0.011,1.704,0.028c0.143,0.004,0.261,0.021,0.362,0.036
			c0.365,0.039,0.53,0.139,0.711,0.429c0.132,0.208,0.177,0.483,0.182,0.598C92.723,33.113,92.703,33.282,92.678,33.356z"/>
	</g>
	<g>
		<path fill="#FFFFFF" d="M92.414,39.693c-0.297,0.516-0.771,0.854-1.292,1.138c-0.566,0.312-1.17,0.583-1.789,0.786
			c-0.597,0.193-1.216,0.344-1.843,0.421c-0.625,0.077-1.245,0.024-1.857-0.093c-0.665-0.131-1.306-0.311-1.97-0.433
			c-0.622-0.114-1.243-0.199-1.869-0.24c-0.677-0.057-1.36-0.05-2.028-0.132c-0.578-0.07-1.229-0.143-1.658-0.59
			c-0.275-0.284-0.39-0.708-0.387-1.098c-0.003-0.552,0.28-1.05,0.768-1.313c0.535-0.292,1.199-0.287,1.786-0.248
			c1.306,0.092,2.623,0.383,3.934,0.191c0.627-0.097,1.204-0.425,1.748-0.735c0.553-0.318,1.082-0.573,1.71-0.685
			c0.632-0.111,1.25-0.095,1.882-0.043c0.64,0.056,1.285,0.172,1.896,0.371c0.55,0.186,0.972,0.469,1.13,1.054
			C92.71,38.572,92.682,39.204,92.414,39.693z"/>
		<path fill="#FFFFFF" d="M92.678,34.223c-0.046,0.119-0.098,0.134-0.284,0.182c-0.219,0.063-0.433,0.111-0.63,0.148
			c-0.959,0.195-1.723,0.276-3.128,0.341c-1.688,0.068-2.906-0.029-3.831-0.149c-0.922-0.117-1.877-0.198-3.569-0.236
			c-1.688-0.037-2.896-0.016-3.232-0.037c-0.318-0.016-0.418-0.05-0.568-0.467c-0.146-0.396-0.258-1.053-0.007-2.222
			c0.125-0.579,0.277-0.925,0.416-1.477c0.082-0.323,0.16-0.722,0.21-1.254c0.045-0.475,0.064-0.988,0.074-1.157
			c0.008-0.173,0.008-0.218,0.286-0.286c0.283-0.073,1.27-0.173,2.159-0.173c0.679-0.003,1.447,0.012,2.025,0.205
			c0.417,0.145,0.502,0.286,0.598,0.408c0.369,0.469,1.216,1.338,1.993,2.04c0.777,0.697,1.83,1.499,2.812,1.998
			c0.979,0.494,1.509,0.569,1.754,0.608c0.368,0.049,1.157,0.011,1.704,0.028c0.143,0.004,0.261,0.021,0.362,0.036
			c0.365,0.039,0.53,0.139,0.711,0.429c0.132,0.208,0.177,0.483,0.182,0.598C92.723,33.98,92.703,34.149,92.678,34.223z"/>
	</g>
</g>
</svg>
