<?xml version="1.0" encoding="utf-8"?>
<!-- Generator: Adobe Illustrator 15.0.2, SVG Export Plug-In . SVG Version: 6.00 Build 0)  -->
<!DOCTYPE svg PUBLIC "-//W3C//DTD SVG 1.1//EN" "http://www.w3.org/Graphics/SVG/1.1/DTD/svg11.dtd">
<svg version="1.1" id="Layer_1" xmlns="http://www.w3.org/2000/svg" xmlns:xlink="http://www.w3.org/1999/xlink" x="0px" y="0px"
	 width="21px" height="17px" viewBox="0 0 21 17" enable-background="new 0 0 21 17" xml:space="preserve">
<g>
	<path fill="#FFFFFF" d="M20.963,8.5c0,0.883-0.574,1.598-1.28,1.598H1.319c-0.708,0-1.282-0.715-1.282-1.598l0,0
		c0-0.881,0.573-1.596,1.282-1.596h18.364C20.389,6.904,20.963,7.619,20.963,8.5L20.963,8.5z"/>
	<path fill="#FFFFFF" d="M20.963,15.125c0,0.883-0.574,1.596-1.28,1.596H1.319c-0.708,0-1.282-0.713-1.282-1.596l0,0
		c0-0.883,0.573-1.598,1.282-1.598h18.364C20.389,13.527,20.963,14.242,20.963,15.125L20.963,15.125z"/>
	<path fill="#FFFFFF" d="M20.963,1.876c0,0.882-0.574,1.596-1.28,1.596H1.319c-0.708,0-1.282-0.714-1.282-1.596l0,0
		c0-0.881,0.573-1.597,1.282-1.597h18.364C20.389,0.28,20.963,0.995,20.963,1.876L20.963,1.876z"/>
</g>
</svg>
